<svg width="155" height="150" viewBox="0 0 155 150" fill="none" xmlns="http://www.w3.org/2000/svg">
<path d="M77.5171 36.5419C55.5251 36.5419 37.7861 53.7125 37.7861 75C37.7861 96.2875 55.5251 113.458 77.5171 113.458C99.5095 113.458 117.249 96.2875 117.249 75C117.249 53.7125 99.5095 36.5419 77.5171 36.5419ZM77.5171 100.003C63.3051 100.003 51.6868 88.79 51.6868 75C51.6868 61.21 63.271 49.9972 77.5171 49.9972C91.7636 49.9972 103.348 61.21 103.348 75C103.348 88.79 91.729 100.003 77.5171 100.003ZM128.141 34.9688C128.141 39.9559 123.991 43.939 118.874 43.939C113.721 43.939 109.607 39.9225 109.607 34.9688C109.607 30.015 113.756 25.9986 118.874 25.9986C123.991 25.9986 128.141 30.015 128.141 34.9688ZM154.455 44.0728C153.867 32.0568 151.032 21.4131 141.938 12.6437C132.878 3.87426 121.882 1.12965 109.468 0.527166C96.674 -0.175722 58.326 -0.175722 45.5318 0.527166C33.1525 1.09618 22.1564 3.84079 13.0622 12.6102C3.96793 21.3796 1.16704 32.0233 0.544618 44.0394C-0.181539 56.4235 -0.181539 93.543 0.544618 105.927C1.13246 117.943 3.96793 128.587 13.0622 137.357C22.1564 146.126 33.118 148.871 45.5318 149.473C58.326 150.176 96.674 150.176 109.468 149.473C121.882 148.904 132.878 146.159 141.938 137.357C150.997 128.587 153.833 117.943 154.455 105.927C155.181 93.543 155.181 56.457 154.455 44.0728ZM137.927 119.215C135.23 125.775 130.008 130.829 123.196 133.473C112.996 137.39 88.7902 136.486 77.5171 136.486C66.2444 136.486 42.0047 137.356 31.8385 133.473C25.0611 130.863 19.8396 125.809 17.1079 119.215C13.0622 109.341 13.9958 85.9115 13.9958 75C13.9958 64.0885 13.0968 40.6254 17.1079 30.7849C19.8051 24.2246 25.0265 19.1705 31.8385 16.5263C42.0393 12.6102 66.2444 13.5139 77.5171 13.5139C88.7902 13.5139 113.03 12.6437 123.196 16.5263C129.974 19.137 135.195 24.1911 137.927 30.7849C141.972 40.6588 141.039 64.0885 141.039 75C141.039 85.9115 141.972 109.374 137.927 119.215Z" fill="url(#paint0_linear_4_86)" fill-opacity="0.6"/>
<defs>
<linearGradient id="paint0_linear_4_86" x1="77.4999" y1="0" x2="77.4999" y2="150" gradientUnits="userSpaceOnUse">
<stop stop-color="#EEE400"/>
<stop offset="0.974221" stop-color="#E70CD1" stop-opacity="0.383911"/>
<stop offset="1" stop-color="#FF09BA" stop-opacity="0"/>
</linearGradient>
</defs>
</svg>
