<svg width="156" height="150" viewBox="0 0 156 150" fill="none" xmlns="http://www.w3.org/2000/svg">
<path d="M139.965 37.3827C140.064 39.0232 140.064 40.6641 140.064 42.3046C140.064 92.3435 107.894 150 49.0966 150C30.9823 150 14.1549 143.789 0 133.008C2.5737 133.359 5.04808 133.477 7.7208 133.477C22.6673 133.477 36.4265 127.5 47.4138 117.305C33.3579 116.953 21.5786 106.055 17.5202 91.0545C19.5001 91.406 21.4796 91.6405 23.5585 91.6405C26.429 91.6405 29.2998 91.1715 31.9722 90.3515C17.3224 86.8355 6.3348 71.6015 6.3348 53.203V52.7345C10.591 55.547 15.5407 57.305 20.7865 57.539C12.1748 50.742 6.53281 39.1405 6.53281 26.0154C6.53281 18.9843 8.11632 12.5389 10.8881 6.9139C26.6268 29.8826 50.2843 44.8824 76.8118 46.5233C76.3173 43.7108 76.0204 40.7814 76.0204 37.8516C76.0204 16.992 90.2741 0 107.993 0C117.198 0 125.512 4.5703 131.353 11.9531C138.578 10.3126 145.507 7.14835 151.645 2.81252C149.269 11.6018 144.221 18.9846 137.589 23.6717C144.023 22.8518 150.259 20.742 156 17.8127C151.646 25.3123 146.201 31.9918 139.965 37.3827Z" fill="#C8EBFF"/>
</svg>
