<svg width="190" height="125" viewBox="0 0 190 125" fill="none" xmlns="http://www.w3.org/2000/svg">
<path d="M186.03 19.5583C183.845 11.8597 177.406 5.79655 169.232 3.73893C154.415 0 95 0 95 0C95 0 35.5857 0 20.7682 3.73893C12.5936 5.7969 6.15538 11.8597 3.97024 19.5583C0 33.5124 0 62.6265 0 62.6265C0 62.6265 0 91.74 3.97024 105.695C6.15538 113.393 12.5936 119.204 20.7682 121.261C35.5857 125 95 125 95 125C95 125 154.414 125 169.232 121.261C177.406 119.204 183.845 113.393 186.03 105.695C190 91.74 190 62.6265 190 62.6265C190 62.6265 190 33.5124 186.03 19.5583ZM75.5679 89.0595V36.1931L125.227 62.627L75.5679 89.0595Z" fill="#FFD3D3"/>
</svg>
